<?xml version="1.0" encoding="utf-8"?>
<!-- Generator: Adobe Illustrator 27.8.1, SVG Export Plug-In . SVG Version: 6.00 Build 0)  -->
<svg version="1.1" id="Laag_1" xmlns="http://www.w3.org/2000/svg" xmlns:xlink="http://www.w3.org/1999/xlink" x="0px" y="0px"
	 viewBox="0 0 566.93 290.65" style="enable-background:new 0 0 566.93 290.65;" xml:space="preserve">
<style type="text/css">
	.st0{fill:#FFFFFF;}
	.st1{fill:url(#SVGID_1_);}
</style>
<g>
	<g>
		<path class="st0" d="M285.84,229.42c-1.02,0-1.96-0.17-2.83-0.52c-0.87-0.35-1.62-0.83-2.26-1.46c-0.64-0.63-1.13-1.36-1.49-2.2
			c-0.35-0.84-0.53-1.76-0.53-2.77c0-1,0.18-1.93,0.53-2.77c0.35-0.84,0.85-1.57,1.5-2.2c0.65-0.63,1.4-1.11,2.26-1.46
			c0.86-0.35,1.8-0.52,2.82-0.52c0.96,0,1.87,0.16,2.71,0.47c0.84,0.31,1.56,0.79,2.16,1.43l-0.63,0.65
			c-0.59-0.57-1.24-0.99-1.95-1.24c-0.71-0.25-1.46-0.38-2.26-0.38c-0.87,0-1.69,0.15-2.43,0.45c-0.75,0.3-1.4,0.72-1.96,1.27
			c-0.55,0.55-0.98,1.19-1.29,1.92c-0.31,0.73-0.46,1.53-0.46,2.39s0.15,1.66,0.46,2.39c0.31,0.73,0.74,1.37,1.29,1.92
			c0.55,0.55,1.21,0.97,1.96,1.27c0.75,0.3,1.56,0.45,2.43,0.45c0.8,0,1.55-0.13,2.26-0.38c0.71-0.25,1.36-0.67,1.95-1.26l0.63,0.65
			c-0.6,0.64-1.32,1.12-2.16,1.44C287.7,229.26,286.8,229.42,285.84,229.42z"/>
		<path class="st0" d="M307.94,229.42c-1.02,0-1.96-0.17-2.83-0.52c-0.87-0.35-1.62-0.83-2.27-1.47c-0.65-0.63-1.14-1.37-1.5-2.21
			c-0.35-0.84-0.53-1.76-0.53-2.75c0-0.99,0.18-1.91,0.53-2.75c0.35-0.84,0.85-1.58,1.5-2.21c0.65-0.63,1.4-1.12,2.27-1.47
			c0.87-0.35,1.81-0.52,2.83-0.52s1.96,0.17,2.83,0.52c0.87,0.35,1.62,0.83,2.26,1.46c0.64,0.63,1.14,1.36,1.5,2.2
			c0.36,0.84,0.54,1.76,0.54,2.77c0,1-0.18,1.93-0.54,2.77c-0.36,0.84-0.86,1.57-1.5,2.2c-0.64,0.63-1.39,1.11-2.26,1.46
			C309.89,229.25,308.95,229.42,307.94,229.42z M307.94,228.5c0.87,0,1.68-0.15,2.43-0.45c0.74-0.3,1.39-0.72,1.94-1.27
			s0.97-1.19,1.28-1.92c0.31-0.73,0.46-1.53,0.46-2.39c0-0.87-0.15-1.67-0.46-2.4c-0.31-0.72-0.73-1.36-1.28-1.91
			c-0.55-0.55-1.19-0.97-1.94-1.27c-0.74-0.3-1.55-0.45-2.43-0.45c-0.87,0-1.68,0.15-2.43,0.45c-0.74,0.3-1.39,0.72-1.95,1.27
			c-0.55,0.55-0.98,1.18-1.29,1.91c-0.31,0.72-0.46,1.52-0.46,2.4c0,0.86,0.15,1.66,0.46,2.39c0.31,0.73,0.74,1.37,1.29,1.92
			c0.55,0.55,1.2,0.97,1.95,1.27C306.25,228.35,307.06,228.5,307.94,228.5z"/>
		<path class="st0" d="M326.89,229.32v-13.69h0.84l9.76,12.46h-0.45v-12.46h1v13.69h-0.82l-9.78-12.46h0.45v12.46H326.89z"/>
		<path class="st0" d="M354.78,229.42c-1.02,0-1.98-0.17-2.88-0.52c-0.91-0.35-1.61-0.79-2.1-1.34l0.45-0.74
			c0.47,0.48,1.11,0.89,1.93,1.22c0.81,0.33,1.68,0.5,2.59,0.5c0.91,0,1.66-0.12,2.24-0.36c0.58-0.24,1.01-0.56,1.29-0.97
			c0.28-0.4,0.42-0.85,0.42-1.35c0-0.59-0.16-1.06-0.47-1.41c-0.31-0.35-0.72-0.63-1.23-0.84c-0.51-0.21-1.06-0.38-1.66-0.53
			c-0.6-0.14-1.21-0.3-1.82-0.46c-0.61-0.16-1.17-0.37-1.68-0.64c-0.51-0.26-0.92-0.62-1.22-1.07c-0.31-0.45-0.46-1.03-0.46-1.75
			c0-0.65,0.17-1.25,0.51-1.8c0.34-0.55,0.87-0.99,1.58-1.33c0.72-0.34,1.64-0.51,2.76-0.51c0.76,0,1.5,0.11,2.24,0.33
			c0.74,0.22,1.37,0.52,1.89,0.9l-0.37,0.8c-0.57-0.39-1.19-0.68-1.85-0.87c-0.66-0.19-1.29-0.28-1.91-0.28
			c-0.87,0-1.6,0.12-2.17,0.37c-0.57,0.25-1,0.58-1.27,0.99c-0.27,0.41-0.41,0.87-0.41,1.38c0,0.59,0.15,1.06,0.46,1.41
			c0.31,0.35,0.71,0.63,1.22,0.84c0.51,0.21,1.07,0.38,1.68,0.53c0.61,0.14,1.22,0.3,1.82,0.46c0.6,0.16,1.15,0.37,1.66,0.64
			c0.51,0.26,0.92,0.61,1.23,1.06c0.31,0.44,0.47,1.02,0.47,1.72c0,0.64-0.18,1.24-0.53,1.79c-0.35,0.55-0.89,1-1.61,1.33
			C356.84,229.25,355.91,229.42,354.78,229.42z"/>
		<path class="st0" d="M376.82,229.42c-1.7,0-3.03-0.5-4.01-1.49c-0.98-0.99-1.47-2.46-1.47-4.42v-7.88h1v7.84
			c0,1.71,0.39,2.97,1.17,3.79s1.89,1.23,3.32,1.23c1.42,0,2.52-0.41,3.31-1.23c0.78-0.82,1.17-2.09,1.17-3.79v-7.84h1v7.88
			c0,1.96-0.49,3.43-1.47,4.42C379.87,228.93,378.53,229.42,376.82,229.42z"/>
		<path class="st0" d="M395.34,229.32v-13.69h1v12.79h7.88v0.9H395.34z"/>
		<path class="st0" d="M416.5,229.32v-12.79h-4.93v-0.9h10.85v0.9h-4.93v12.79H416.5z"/>
		<path class="st0" d="M433.27,229.32v-13.69h1v13.69H433.27z"/>
		<path class="st0" d="M447.41,229.32v-13.69h0.84l9.76,12.46h-0.45v-12.46h1v13.69h-0.82l-9.78-12.46h0.45v12.46H447.41z"/>
		<path class="st0" d="M477.55,229.42c-1.03,0-1.98-0.17-2.86-0.52c-0.87-0.35-1.63-0.83-2.28-1.46c-0.65-0.63-1.14-1.36-1.5-2.2
			c-0.35-0.84-0.53-1.76-0.53-2.77c0-1,0.18-1.93,0.53-2.77c0.35-0.84,0.85-1.57,1.51-2.2c0.65-0.63,1.41-1.11,2.28-1.46
			c0.87-0.35,1.82-0.52,2.87-0.52c0.99,0,1.91,0.16,2.76,0.47c0.85,0.31,1.57,0.78,2.17,1.41l-0.63,0.67c-0.6-0.59-1.26-1-1.97-1.25
			c-0.71-0.25-1.48-0.37-2.32-0.37c-0.89,0-1.71,0.15-2.46,0.45c-0.76,0.3-1.42,0.72-1.98,1.27c-0.56,0.55-0.99,1.19-1.3,1.92
			c-0.31,0.73-0.46,1.53-0.46,2.39s0.15,1.66,0.46,2.39c0.31,0.73,0.74,1.37,1.3,1.92c0.56,0.55,1.22,0.97,1.98,1.27
			c0.76,0.3,1.58,0.45,2.46,0.45c0.81,0,1.57-0.12,2.3-0.37c0.72-0.25,1.39-0.66,1.99-1.23l0.57,0.76c-0.61,0.59-1.35,1.03-2.2,1.32
			C479.38,229.27,478.48,229.42,477.55,229.42z M481.48,227.56v-5.03h0.96v5.12L481.48,227.56z"/>
	</g>
	<linearGradient id="SVGID_1_" gradientUnits="userSpaceOnUse" x1="71.6794" y1="145.3244" x2="495.2497" y2="145.3244">
		<stop  offset="0" style="stop-color:#0080C9"/>
		<stop  offset="0.8042" style="stop-color:#3DBEEC"/>
	</linearGradient>
	<path class="st1" d="M171.09,98.22l-11.38-19.73l11.38-19.72l53,92.63H201.6l-11.06-19.49L171.09,98.22z M125.3,178.46l30.61-53.95
		l12.41,21.48l2.77,4.81l0.35,0.61h22.76L171,111.51l0,0l-3.79-6.58l-11.38-19.72l-11.3,19.57v0.01L71.68,231.87h22.77l11.39-19.72
		L125.3,178.46z M168.82,159.42c15.86,0,25.06,9.14,25.06,21.95v0.13c0,12.82-9.33,22.33-25.31,22.33H151.7v-44.41H168.82z
		 M169.02,170.34H164v22.59h5.01c7.36,0,12.24-4.06,12.24-11.23v-0.13C181.26,174.46,176.37,170.34,169.02,170.34z M240.2,169.89
		v-10.47h-35.72v44.41h36.04v-10.47h-23.85v-7.04h21.32v-9.71h-21.32v-6.73H240.2z M263.35,159.42h-12.31v44.41h33.81v-10.79h-21.51
		V159.42z M285.56,170.21h13.32v33.62h12.31v-33.62h13.32v-10.79h-38.95V170.21z M355.66,159.11l18.91,44.73h-13.2l-3.24-7.93H341
		l-3.17,7.93h-12.94l18.91-44.73H355.66z M354.58,186.32l-4.95-12.62l-5.01,12.62H354.58z M423.88,191.3v0.13
		c0,7.61-6.22,12.24-16.81,12.24h-22.9v-44.41h22.78c5.58,0,9.52,1.4,12.12,4c1.78,1.78,2.85,4.12,2.85,7.17v0.13
		c0,5.14-2.92,8.18-6.85,9.9C420.45,182.23,423.88,185.28,423.88,191.3z M396.15,176.97h7.74c3.74,0,5.84-1.27,5.84-3.87v-0.13
		c0-2.41-1.9-3.81-5.58-3.81h-7.99V176.97z M411.57,189.59c0-2.41-1.9-4-6.03-4h-9.39v8.18h9.52c3.74,0,5.9-1.46,5.9-4.06V189.59z
		 M434.03,203.68h12.37v-44.41h-12.37V203.68z M456.3,159.27v10.78h13.32v33.62h12.31v-33.62h13.32v-10.78H456.3z M132.78,212.22
		l0.02-0.07h-19.82l-11.38,19.72l168.64,0.01l-11.35-19.66H132.78z"/>
</g>
</svg>
